<?xml version="1.0" encoding="utf-8"?>
<!-- Generator: Adobe Illustrator 16.0.1, SVG Export Plug-In . SVG Version: 6.00 Build 0)  -->
<!DOCTYPE svg PUBLIC "-//W3C//DTD SVG 1.1//EN" "http://www.w3.org/Graphics/SVG/1.1/DTD/svg11.dtd">
<svg version="1.1" id="Layer_1" xmlns="http://www.w3.org/2000/svg" xmlns:xlink="http://www.w3.org/1999/xlink" x="0px" y="0px"
	 width="100px" height="100px" viewBox="0 0 100 100" enable-background="new 0 0 100 100" xml:space="preserve">
<path fill="#FFFFFF" d="M30.131,82.617h0.138c1.164,1.897,9.806,3.373,20.302,3.373c10.496,0,19.139-1.476,20.301-3.373h0.096
	l5.401-51.675H24.286L30.131,82.617z M61.752,79.023l3.347-41.473c0.072-0.895,0.642-1.578,1.274-1.526l2.589,0.209
	c0.632,0.05,1.085,0.816,1.014,1.71l-3.347,41.473c-0.072,0.894-0.643,1.579-1.275,1.526l-2.588-0.209
	C62.132,80.684,61.68,79.916,61.752,79.023z M48.286,36.901c0-0.939,0.566-1.701,1.265-1.701h2.859c0.7,0,1.266,0.762,1.266,1.701
	V80.48c0,0.94-0.565,1.702-1.266,1.702h-2.859c-0.699,0-1.265-0.762-1.265-1.702V36.901z M32.063,35.973l2.659-0.224
	c0.65-0.056,1.237,0.625,1.312,1.52l3.493,41.46c0.075,0.893-0.388,1.662-1.039,1.719l-2.66,0.223
	c-0.649,0.056-1.237-0.626-1.312-1.519L31.025,37.69C30.95,36.797,31.414,36.028,32.063,35.973z"/>
</svg>
