<svg xmlns="http://www.w3.org/2000/svg" xmlns:xlink="http://www.w3.org/1999/xlink" version="1.1" x="0px" y="0px" width="100px" height="100px" 
	viewBox="-28.0 -28.0 150.0 150.0" enable-background="new 0 0 100 100" xml:space="preserve">
<style type="text/css">
  <![CDATA[
    .wrench { fill: white; }
  ]]>
</style>

<g id="Captions">
</g>
<g id="Your_Icon">
	<path class="wrench" d="M43.762,66.757l22.655-22.655c5.045,1.348,10.652,0.042,14.61-3.917c4.229-4.228,5.43-10.338,3.604-15.635l-8.951,8.951   l-7.353-2.005l-2.005-7.353l8.951-8.951c-5.297-1.825-11.407-0.625-15.636,3.604c-3.958,3.958-5.264,9.565-3.917,14.611   L33.066,56.062c-5.045-1.349-10.652-0.043-14.61,3.915c-4.229,4.229-5.43,10.34-3.604,15.636l8.952-8.951l7.353,2.005l2.005,7.354   l-8.952,8.951c5.297,1.825,11.407,0.624,15.636-3.604C43.804,77.409,45.109,71.802,43.762,66.757z"/>
</g>
</svg>